<svg id="Layer_1" data-name="Layer 1" xmlns="http://www.w3.org/2000/svg" xmlns:xlink="http://www.w3.org/1999/xlink" width="209.83" height="42.25" viewBox="0 0 209.83 42.25"><defs><style>.cls-1{fill:none;}.cls-2{clip-path:url(#clip-path);}.cls-3{clip-path:url(#clip-path-2);}.cls-4{opacity:0.4;}.cls-5{opacity:0.29;isolation:isolate;fill:url(#linear-gradient);}.cls-6{fill:url(#radial-gradient);}.cls-7{fill:#fff;}.cls-8{fill:#1778f2;}.cls-9{fill:#e55223;}</style><clipPath id="clip-path"><rect class="cls-1" x="-578" y="170.3" width="1198" height="151.8"/></clipPath><clipPath id="clip-path-2"><rect class="cls-1" x="-562.38" y="-318.01" width="1200.22" height="834.42"/></clipPath><linearGradient id="linear-gradient" x1="-15078.05" y1="5447.79" x2="-14866.65" y2="5639.71" gradientTransform="matrix(0, 1, 1, 0, -5434.85, 14877.47)" gradientUnits="userSpaceOnUse"><stop offset="0" stop-color="#1effd6"/><stop offset="0.04" stop-color="#1af7d3" stop-opacity="0.9"/><stop offset="0.09" stop-color="#15edcf" stop-opacity="0.78"/><stop offset="0.14" stop-color="#10e4cb" stop-opacity="0.68"/><stop offset="0.2" stop-color="#0dddc8" stop-opacity="0.6"/><stop offset="0.27" stop-color="#0bd9c6" stop-opacity="0.54"/><stop offset="0.33" stop-color="#09d6c5" stop-opacity="0.51"/><stop offset="0.42" stop-color="#09d5c5" stop-opacity="0.5"/><stop offset="1" stop-color="#d7ffff" stop-opacity="0"/></linearGradient><radialGradient id="radial-gradient" cx="191.98" cy="-30.47" r="79.97" gradientTransform="matrix(0.94, 0, 0, -0.93, -75.3, -7.17)" gradientUnits="userSpaceOnUse"><stop offset="0" stop-color="#fed939"/><stop offset="1" stop-color="#fed82d"/></radialGradient></defs><g class="cls-2"><g class="cls-3"><g class="cls-4"><ellipse class="cls-5" cx="95.66" cy="-109.46" rx="134.61" ry="129.47"/></g></g></g><path class="cls-6" d="M22,.17H188.33a21,21,0,0,1,21,21h0a21,21,0,0,1-21,21H22a21,21,0,0,1-21-21H1A21,21,0,0,1,22,.17Z"/><circle class="cls-7" cx="24.81" cy="21.56" r="11.69"/><path class="cls-8" d="M24.83,9.05a12.16,12.16,0,0,0-2,24.15V23.76H19.87v-3.4H22.8V17.85a4.1,4.1,0,0,1,4.38-4.49,24.81,24.81,0,0,1,2.62.13v3H28c-1.41,0-1.69.67-1.69,1.66v2.17h3.37l-.44,3.4H26.31v9.53A12.16,12.16,0,0,0,24.83,9.05Z"/><path class="cls-9" d="M45.6,21a6.08,6.08,0,0,1,.31-1.89l1.69-.27a5.23,5.23,0,0,0-.41,2c0,1.69.74,2.48,3,2.48h2.51V16.11h1.58v8.46H50C46.74,24.57,45.6,23.21,45.6,21Zm3-2.29a4.22,4.22,0,0,1,.67,0,.53.53,0,0,1-.22-.46c0-.68.48-1.35,1.73-1.35a5.09,5.09,0,0,1,.71.06l-.14.9a3.67,3.67,0,0,0-.6-.06c-.37,0-.58.17-.58.41s.22.46.83.46h.68v.9H48.62Z"/><path class="cls-9" d="M55.85,27.43l.09-1.29a10.32,10.32,0,0,0,1.87.2c1.25,0,2.08-.46,2.08-1.59v-.18H59c-2.33,0-3.21-1.08-3.21-2.79a2.89,2.89,0,0,1,3.18-3,7.68,7.68,0,0,1,2.5.42v4.13h1.19v1.25H61.42v0c0,1.66-1.06,3-3.75,3A12.22,12.22,0,0,1,55.85,27.43Zm4-7.19A2.87,2.87,0,0,0,58.75,20a1.44,1.44,0,0,0-1.43,1.62c0,1.09.54,1.68,1.8,1.68h.77Z"/><path class="cls-9" d="M62.42,23.32H64.1V18.93h1.59v4.39h1.17v1.25H62.42Zm.76,3.05a.83.83,0,0,1,.83-.83.83.83,0,1,1-.83.83Z"/><path class="cls-9" d="M66.68,23.32h.39c.78,0,1.08-.31,1.08-1.5V19.65h1.58V22c0,.9.2,1.4.91,1.4s.89-.52.89-1.38V19.17H73V22c0,1,.26,1.33,1.32,1.33h.42c0-.48.08-1.07.08-1.44a15.12,15.12,0,0,0-.34-3.21l1.54-.22a14.68,14.68,0,0,1,.39,3.32c0,.48,0,1-.06,1.55h1.17v1.25H74c-1.05,0-1.68-.24-2-.89a1.8,1.8,0,0,1-1.74,1,1.64,1.64,0,0,1-1.7-1c-.22.58-.71.89-1.59.89h-.38Z"/><path class="cls-9" d="M77.39,23.32h2.25V18.93h1.59v4.39h1.18v1.25h-5Zm1,3.86a.79.79,0,0,1-.79-.81.8.8,0,1,1,.79.81Zm2,0a.79.79,0,0,1-.79-.81.79.79,0,1,1,.79.81Z"/><path class="cls-9" d="M82.22,23.32h.51a5.07,5.07,0,0,1,.73.06,2.28,2.28,0,0,1-.55-1.62,2.89,2.89,0,0,1,3-3,2.52,2.52,0,0,1,2.8,2.8,2.42,2.42,0,0,1-.7,1.81s.51-.06.91-.06h.64v1.25H82.22Zm4.93-1.67c0-1-.4-1.63-1.3-1.63-.69,0-1.36.48-1.36,1.61s.44,1.69,1.33,1.69S87.15,22.77,87.15,21.65ZM85,17.05a.83.83,0,1,1,.83.82A.81.81,0,0,1,85,17.05Z"/><path class="cls-9" d="M89.42,23.32h1.49V16.11h1.58v8.46H89.42Z"/><path class="cls-9" d="M94.54,16.11h1.58v8.46H94.54Z"/><path class="cls-9" d="M106.28,24.57c-2.13,0-3-.89-3.2-2.33h-.24c-.69,0-.89.4-.71,1.52l.62,3.93h-1.52l-.61-3.81c-.26-1.7.35-2.89,2.27-2.89h.26a2.88,2.88,0,0,1,3-2.22,2.46,2.46,0,0,1,2.71,2.76v3Zm1.08-2.85c0-1.2-.48-1.7-1.28-1.7a1.44,1.44,0,0,0-1.43,1.62c0,1.13.55,1.68,1.8,1.68h.91Z"/><path class="cls-9" d="M110.76,16.11h1.58v8.46h-1.58Z"/><path class="cls-9" d="M113.92,23.32h3.56A3.31,3.31,0,0,0,114.65,20l.38-1.32c2.46.65,3.84,2,4,4.68h.78v1.25h-5.87Z"/><path class="cls-9" d="M119.62,23.32h4.64a9.07,9.07,0,0,0,.06-.91c0-1.52-.63-2.31-2.35-2.31a10,10,0,0,0-1.38.1V19a12.37,12.37,0,0,1,1.53-.11c2.7,0,3.77,1.19,3.77,3.49a8.52,8.52,0,0,1,0,1h.94v1.25h-7.16Zm2-6.22a.83.83,0,1,1,.83.82A.82.82,0,0,1,121.63,17.1Z"/><path class="cls-9" d="M126.6,23.32h1.68V18.93h1.58v4.39h1.07v1.25H126.6Zm.45-6.12a.8.8,0,1,1,.8.82A.8.8,0,0,1,127.05,17.2Zm2,0a.8.8,0,0,1,.8-.81.8.8,0,0,1,.79.81.8.8,0,1,1-1.59,0Z"/><path class="cls-9" d="M130.75,23.32h.38c.78,0,1.08-.31,1.08-1.5V19.65h1.59V22c0,.9.2,1.4.91,1.4s.89-.52.89-1.38V19.17h1.51V22c0,1,.26,1.33,1.32,1.33h.42c0-.48.08-1.07.08-1.44a14.46,14.46,0,0,0-.35-3.21l1.55-.22a14.7,14.7,0,0,1,.38,3.32,23.51,23.51,0,0,1-.18,2.8H138.1c-1,0-1.68-.24-1.94-.89a1.8,1.8,0,0,1-1.74,1,1.64,1.64,0,0,1-1.7-1c-.22.58-.71.89-1.6.89h-.37Z"/><path class="cls-9" d="M142.37,16.11H144v7.21h1.2v1.25h-2.78Z"/><path class="cls-9" d="M145,23.32h1.68V18.93h1.58v5.64H145Zm.76,3.05a.83.83,0,1,1,.82.82A.82.82,0,0,1,145.73,26.37Z"/><path class="cls-9" d="M157.34,16.11h1.58v7.55c0,2.51-1.19,3.67-3.21,3.67s-3.1-1-3.1-3.41a8.37,8.37,0,0,1,.29-2.15l1.63-.3a9,9,0,0,0-.33,2.31c0,1.83.8,2.31,1.64,2.31s1.5-.55,1.5-2.31Z"/><path class="cls-9" d="M160.44,27.43l.09-1.29a10.32,10.32,0,0,0,1.87.2c1.25,0,2.08-.46,2.08-1.59v-.18h-.94c-2.33,0-3.21-1.08-3.21-2.79a2.89,2.89,0,0,1,3.18-3,7.68,7.68,0,0,1,2.5.42v4.13h1.19v1.25H166v0c0,1.66-1.06,3-3.75,3A12.22,12.22,0,0,1,160.44,27.43Zm4-7.19a2.87,2.87,0,0,0-1.14-.22,1.44,1.44,0,0,0-1.43,1.62c0,1.09.54,1.68,1.8,1.68h.77Z"/><path class="cls-9" d="M167,23.32h4.65a9.08,9.08,0,0,0,.05-.91c0-1.52-.62-2.31-2.35-2.31a9.91,9.91,0,0,0-1.37.1V19a12.23,12.23,0,0,1,1.53-.11c2.7,0,3.77,1.19,3.77,3.49a13.28,13.28,0,0,1-.21,2.22H167Zm2-6.22a.83.83,0,1,1,.83.82A.82.82,0,0,1,169,17.1Z"/><path class="cls-9" d="M174.5,23.32h3.56A3.3,3.3,0,0,0,175.23,20l.39-1.32c2.46.65,3.84,2,4,4.68h.78v1.25H174.5Z"/><path class="cls-9" d="M180.2,23.32h1.49V16.11h1.58v8.46H180.2Z"/><path class="cls-9" d="M185.31,16.11h1.59v8.46h-1.59Z"/></svg>