<svg id="Layer_1" data-name="Layer 1" xmlns="http://www.w3.org/2000/svg" viewBox="0 0 197 197"><defs><style>.cls-1{fill:#f7c011;}.cls-2{fill:#e55223;}.cls-3{fill:#fff;}.cls-4{fill:#c16316;}</style></defs><rect class="cls-1" x="15" y="15" width="167" height="167" rx="83.5"/><circle class="cls-2" cx="94.77" cy="105.94" r="48.75"/><circle class="cls-3" cx="94.77" cy="105.94" r="37.54"/><path class="cls-2" d="M137.69,64.63,147.07,74A13.35,13.35,0,0,0,128.2,55.14Z"/><path class="cls-3" d="M108.68,42.31H80.89a2.18,2.18,0,0,0,0,4.36H92.61V57.2a2.16,2.16,0,0,0,4.32,0V46.67h11.75a2.16,2.16,0,0,0,0-4.31Z"/><path class="cls-3" d="M136.19,63.12l-7.67,7.61a2.14,2.14,0,0,0,3,3l7.66-7.6a2.09,2.09,0,0,0,.08-3l-.08-.08A2.29,2.29,0,0,0,136.19,63.12Z"/><path class="cls-4" d="M99.4,101.31h0a6.47,6.47,0,0,0-2.47-1.52V83.4a2.16,2.16,0,1,0-4.32,0V99.79a7.28,7.28,0,0,0-2.48,1.52h0a6.5,6.5,0,0,0-.08,9.2l.08.07h0a6.5,6.5,0,0,0,4.64,1.9,5.91,5.91,0,0,0,4.42-1.84l.1-.1a6.51,6.51,0,0,0,1.91-4.64,6,6,0,0,0-1.84-4.63Zm-3,6.14h0a2.34,2.34,0,0,1-3.23,0h0a2.34,2.34,0,0,1,0-3.23h0a2.19,2.19,0,0,1,1.62-.65h0a2.2,2.2,0,0,1,1.61.65h0a2.16,2.16,0,0,1,.65,1.61A2.44,2.44,0,0,1,96.38,107.45Z"/></svg>